# xmcd CD database file
#
# Track frame offsets:
#	150
#	12929
#	26083
#	39603
#	53126
#	65004
#	79201
#	93273
#	104645
#	118465
#	130247
#	144913
#	158442
#	173459
#	185704
#	199727
#	214527
#	228651
#	242757
#	256315
#
# Disc length: 3597 seconds
#
# Revision: 0
# Processed by: cddbd v1.5.2PL0 Copyright (c) Steve Scherf et al.
# Submitted via: CDex 1.70beta2
#
DISCID=190e0b14
DTITLE=Teddy Wilson - Fine and dandy
DYEAR=1900
DGENRE=Jazz
TTITLE0=Why was I born
TTITLE1=I must have that man
TTITLE2=The mood that I'm in
TTITLE3=You showed me the way
TTITLE4=Sentimantal and melancholy
TTITLE5=My last affair
TTITLE6=Carelessly
TTITLE7=How could you
TTITLE8=Moanin' low
TTITLE9=Fine and dandy
TTITLE10=There's a lull in my life
TTITLE11=It's swell of you
TTITLE12=How am I to know
TTITLE13=I'm coming, Virginia
TTITLE14=Sun showers
TTITLE15=Yours and mine
TTITLE16=I'll get by
TTITLE17=Mean to me
TTITLE18=Foolin' myself
TTITLE19=Easy living
EXTD=
EXTT0=
EXTT1=
EXTT2=
EXTT3=
EXTT4=
EXTT5=
EXTT6=
EXTT7=
EXTT8=
EXTT9=
EXTT10=
EXTT11=
EXTT12=
EXTT13=
EXTT14=
EXTT15=
EXTT16=
EXTT17=
EXTT18=
EXTT19=
PLAYORDER=
